<svg width="2248" height="1435" viewBox="0 0 2248 1435" fill="none" xmlns="http://www.w3.org/2000/svg">
<rect x="-1.03925" width="1298.42" height="1298.42" rx="159" transform="matrix(0.866044 -0.499967 0.866044 0.499967 0.618843 768.56)" fill="url(#paint0_linear_2451_2114)" fill-opacity="0.1" stroke="url(#paint1_linear_2451_2114)" stroke-width="1.2"/>
<rect x="-1.03925" width="1298.42" height="1298.42" rx="159" transform="matrix(0.866044 -0.499967 0.866044 0.499967 0.618843 744.56)" fill="url(#paint2_linear_2451_2114)" fill-opacity="0.1" stroke="url(#paint3_linear_2451_2114)" stroke-width="1.2"/>
<rect x="-1.03925" width="1298.42" height="1298.42" rx="159" transform="matrix(0.866044 -0.499967 0.866044 0.499967 0.618843 720.56)" fill="url(#paint4_linear_2451_2114)" fill-opacity="0.1" stroke="url(#paint5_linear_2451_2114)" stroke-width="1.2"/>
<rect x="-1.03925" width="1298.42" height="1298.42" rx="159" transform="matrix(0.866044 -0.499967 0.866044 0.499967 0.618843 696.56)" fill="url(#paint6_linear_2451_2114)" fill-opacity="0.1" stroke="url(#paint7_linear_2451_2114)" stroke-width="1.2"/>
<rect x="-1.03925" width="816.229" height="816.229" rx="408.115" transform="matrix(0.866044 -0.499967 0.866044 0.499967 418.219 696.56)" stroke="url(#paint8_linear_2451_2114)" stroke-width="1.2"/>
<path d="M556.941 351.995C560.002 353.762 564.965 353.762 568.026 351.995C571.088 350.227 571.088 347.362 568.026 345.595C564.965 343.828 560.002 343.828 556.941 345.595C553.88 347.362 553.88 350.227 556.941 351.995ZM597.592 328.527L613.984 325.991L601.984 319.064L597.592 328.527ZM1260.35 104.305L2109.44 594.484L2111.52 593.284L1262.43 103.106L1260.35 104.305ZM2109.44 751.674L1260.35 1241.85L1262.43 1243.05L2111.52 752.874L2109.44 751.674ZM988.067 1241.85L138.979 751.674L136.9 752.874L985.989 1243.05L988.067 1241.85ZM138.979 594.484L563.523 349.395L561.444 348.195L136.9 593.284L138.979 594.484ZM844.386 187.253L988.067 104.305L985.989 103.105L842.307 186.053L844.386 187.253ZM703.954 268.324L844.386 187.253L842.307 186.053L701.876 267.124L703.954 268.324ZM633.739 308.859L703.954 268.324L701.876 267.124L631.66 307.659L633.739 308.859ZM607.984 323.727L633.739 308.859L631.66 307.659L605.906 322.528L607.984 323.727ZM1260.35 1241.85C1185.16 1285.26 1063.26 1285.26 988.067 1241.85L985.989 1243.05C1062.33 1287.12 1186.09 1287.12 1262.43 1243.05L1260.35 1241.85ZM2109.44 594.484C2184.63 637.891 2184.63 708.267 2109.44 751.674L2111.52 752.874C2187.86 708.804 2187.86 637.354 2111.52 593.284L2109.44 594.484ZM1262.43 103.106C1186.09 59.0361 1062.33 59.036 985.989 103.105L988.067 104.305C1063.26 60.8986 1185.16 60.8986 1260.35 104.305L1262.43 103.106ZM138.979 751.674C63.7894 708.267 63.7895 637.891 138.979 594.484L136.9 593.284C60.5631 637.354 60.5629 708.804 136.9 752.874L138.979 751.674Z" fill="url(#paint9_linear_2451_2114)"/>
<path d="M281.621 486.937L265.228 489.473L277.228 496.4L281.621 486.937ZM345.836 449.865L357.837 449.865L357.837 442.938L345.836 442.938L345.836 449.865ZM422.052 892.292L417.66 882.829L405.66 889.757L422.052 892.292ZM492.268 932.828L496.66 942.291L508.661 935.364L492.268 932.828ZM434.064 905.626C437.125 907.393 442.088 907.393 445.149 905.626C448.21 903.859 448.21 900.994 445.149 899.226C442.088 897.459 437.125 897.459 434.064 899.226C431.002 900.994 431.002 903.859 434.064 905.626ZM469.171 925.894C472.233 927.661 477.196 927.661 480.257 925.894C483.318 924.127 483.318 921.261 480.257 919.494C477.196 917.727 472.233 917.727 469.171 919.494C466.11 921.261 466.11 924.127 469.171 925.894ZM1260.35 80.3054L2109.44 570.484L2111.52 569.284L1262.43 79.1055L1260.35 80.3054ZM2109.44 727.674L1260.35 1217.85L1262.43 1219.05L2111.52 728.874L2109.44 727.674ZM563.523 325.395L988.067 80.3054L985.989 79.1054L561.444 324.195L563.523 325.395ZM138.979 570.484L273.307 492.937L271.228 491.737L136.9 569.284L138.979 570.484ZM423.092 406.466L563.523 325.395L561.444 324.195L421.013 405.266L423.092 406.466ZM352.876 447.001L423.092 406.466L421.013 405.266L350.797 445.801L352.876 447.001ZM988.067 1217.85L563.523 972.763L561.444 973.963L985.989 1219.05L988.067 1217.85ZM282.66 810.621L138.979 727.674L136.9 728.874L280.582 811.821L282.66 810.621ZM413.738 886.293L282.66 810.621L280.582 811.821L411.66 887.493L413.738 886.293ZM563.523 972.763L502.661 937.627L500.582 938.827L561.444 973.963L563.523 972.763ZM458.199 911.96L440.645 901.826L438.567 903.026L456.121 913.16L458.199 911.96ZM475.753 922.094L466.976 917.027L464.898 918.227L473.675 923.294L475.753 922.094ZM466.976 917.027L458.199 911.96L456.121 913.16L464.898 918.227L466.976 917.027ZM1260.35 1217.85C1185.16 1261.26 1063.26 1261.26 988.067 1217.85L985.989 1219.05C1062.33 1263.12 1186.09 1263.12 1262.43 1219.05L1260.35 1217.85ZM2109.44 570.484C2184.63 613.891 2184.63 684.267 2109.44 727.674L2111.52 728.874C2187.86 684.804 2187.86 613.354 2111.52 569.284L2109.44 570.484ZM1262.43 79.1055C1186.09 35.0361 1062.33 35.036 985.989 79.1054L988.067 80.3054C1063.26 36.8986 1185.16 36.8986 1260.35 80.3054L1262.43 79.1055ZM136.9 569.284C60.5631 613.354 60.5631 684.804 136.9 728.874L138.979 727.674C63.7895 684.267 63.7895 613.891 138.979 570.484L136.9 569.284Z" fill="url(#paint10_linear_2451_2114)"/>
<rect x="-1.03925" width="816.229" height="816.229" rx="408.115" transform="matrix(0.866044 -0.499967 0.866044 0.499967 418.219 696.559)" fill="url(#paint11_linear_2451_2114)" fill-opacity="0.1" stroke="url(#paint12_linear_2451_2114)" stroke-width="1.2"/>
<rect x="-1.03925" width="816.229" height="816.229" rx="408.115" transform="matrix(0.866044 -0.499967 0.866044 0.499967 418.219 715.282)" fill="url(#paint13_linear_2451_2114)" fill-opacity="0.5" stroke="url(#paint14_linear_2451_2114)" stroke-width="1.2"/>
<rect x="-1.03925" width="816.229" height="816.229" rx="408.115" transform="matrix(0.866044 -0.499967 0.866044 0.499967 418.219 734.004)" fill="url(#paint15_linear_2451_2114)" fill-opacity="0.5" stroke="url(#paint16_linear_2451_2114)" stroke-width="1.2"/>
<rect x="-1.03925" width="816.229" height="816.229" rx="408.115" transform="matrix(0.866044 -0.499967 0.866044 0.499967 418.219 752.727)" fill="url(#paint17_linear_2451_2114)" fill-opacity="0.7" stroke="url(#paint18_linear_2451_2114)" stroke-width="1.2"/>
<path d="M1123.21 693.828L1123.72 694.128L1124.24 693.828L1202.36 648.729L1254.51 829.338L1124.24 754.137L1123.72 753.837L1123.21 754.137L1045.08 799.236L992.943 618.628L1123.21 693.828Z" fill="url(#paint19_linear_2451_2114)" fill-opacity="0.1" stroke="url(#paint20_linear_2451_2114)" stroke-width="1.2"/>
<path d="M1123.21 681.829L1123.72 682.129L1124.24 681.829L1202.36 636.73L1254.51 817.338L1124.24 742.138L1123.72 741.838L1123.21 742.138L1045.08 787.236L992.943 606.628L1123.21 681.829Z" fill="url(#paint21_linear_2451_2114)" fill-opacity="0.4" stroke="url(#paint22_linear_2451_2114)" stroke-width="1.2"/>
<defs>
<linearGradient id="paint0_linear_2451_2114" x1="648.611" y1="0" x2="648.611" y2="1297.22" gradientUnits="userSpaceOnUse">
<stop stop-color="#063E56"/>
<stop offset="0.515" stop-color="#008F7C"/>
</linearGradient>
<linearGradient id="paint1_linear_2451_2114" x1="648.611" y1="0" x2="648.611" y2="1297.22" gradientUnits="userSpaceOnUse">
<stop stop-color="#04646C"/>
<stop offset="0.49" stop-color="#00EB75"/>
<stop offset="0.91" stop-color="#00EB75" stop-opacity="0"/>
</linearGradient>
<linearGradient id="paint2_linear_2451_2114" x1="648.611" y1="0" x2="648.611" y2="1297.22" gradientUnits="userSpaceOnUse">
<stop stop-color="#063E56"/>
<stop offset="0.515" stop-color="#008F7C"/>
</linearGradient>
<linearGradient id="paint3_linear_2451_2114" x1="648.611" y1="0" x2="648.611" y2="1297.22" gradientUnits="userSpaceOnUse">
<stop stop-color="#04646C"/>
<stop offset="0.49" stop-color="#00EB75"/>
<stop offset="0.91" stop-color="#00EB75" stop-opacity="0"/>
</linearGradient>
<linearGradient id="paint4_linear_2451_2114" x1="648.611" y1="0" x2="648.611" y2="1297.22" gradientUnits="userSpaceOnUse">
<stop stop-color="#063E56"/>
<stop offset="0.515" stop-color="#008F7C"/>
</linearGradient>
<linearGradient id="paint5_linear_2451_2114" x1="648.611" y1="0" x2="648.611" y2="1297.22" gradientUnits="userSpaceOnUse">
<stop stop-color="#04646C"/>
<stop offset="0.49" stop-color="#00EB75"/>
<stop offset="0.91" stop-color="#00EB75" stop-opacity="0"/>
</linearGradient>
<linearGradient id="paint6_linear_2451_2114" x1="648.611" y1="0" x2="648.611" y2="1297.22" gradientUnits="userSpaceOnUse">
<stop stop-color="#063E56"/>
<stop offset="0.515" stop-color="#008F7C"/>
</linearGradient>
<linearGradient id="paint7_linear_2451_2114" x1="648.611" y1="0" x2="648.611" y2="1297.22" gradientUnits="userSpaceOnUse">
<stop stop-color="#04646C"/>
<stop offset="0.49" stop-color="#00EB75"/>
<stop offset="0.91" stop-color="#00EB75" stop-opacity="0"/>
</linearGradient>
<linearGradient id="paint8_linear_2451_2114" x1="407.515" y1="0" x2="407.515" y2="815.029" gradientUnits="userSpaceOnUse">
<stop stop-color="#04646C"/>
<stop offset="0.49" stop-color="#00EB75"/>
<stop offset="0.91" stop-color="#00EB75" stop-opacity="0"/>
</linearGradient>
<linearGradient id="paint9_linear_2451_2114" x1="562.484" y1="348.795" x2="1124.14" y2="1321.69" gradientUnits="userSpaceOnUse">
<stop stop-color="#04646C"/>
<stop offset="0.49" stop-color="#00EB75"/>
<stop offset="0.91" stop-color="#00EB75" stop-opacity="0"/>
</linearGradient>
<linearGradient id="paint10_linear_2451_2114" x1="562.484" y1="324.795" x2="1124.14" y2="1297.69" gradientUnits="userSpaceOnUse">
<stop stop-color="#04646C"/>
<stop offset="0.49" stop-color="#00EB75"/>
<stop offset="0.91" stop-color="#00EB75" stop-opacity="0"/>
</linearGradient>
<linearGradient id="paint11_linear_2451_2114" x1="407.515" y1="0" x2="407.515" y2="815.029" gradientUnits="userSpaceOnUse">
<stop stop-color="#063E56"/>
<stop offset="0.515" stop-color="#008F7C"/>
</linearGradient>
<linearGradient id="paint12_linear_2451_2114" x1="407.515" y1="0" x2="407.515" y2="815.029" gradientUnits="userSpaceOnUse">
<stop stop-color="#04646C"/>
<stop offset="0.49" stop-color="#00EB75"/>
<stop offset="0.91" stop-color="#00EB75" stop-opacity="0"/>
</linearGradient>
<linearGradient id="paint13_linear_2451_2114" x1="407.515" y1="0" x2="407.515" y2="815.029" gradientUnits="userSpaceOnUse">
<stop stop-color="#00182E"/>
<stop offset="0.515" stop-color="#063E56"/>
</linearGradient>
<linearGradient id="paint14_linear_2451_2114" x1="407.515" y1="0" x2="407.515" y2="815.029" gradientUnits="userSpaceOnUse">
<stop stop-color="#04646C"/>
<stop offset="0.49" stop-color="#00EB75"/>
<stop offset="0.91" stop-color="#00EB75" stop-opacity="0"/>
</linearGradient>
<linearGradient id="paint15_linear_2451_2114" x1="407.515" y1="0" x2="407.515" y2="815.029" gradientUnits="userSpaceOnUse">
<stop stop-color="#00182E"/>
<stop offset="0.515" stop-color="#063E56"/>
</linearGradient>
<linearGradient id="paint16_linear_2451_2114" x1="407.515" y1="0" x2="407.515" y2="815.029" gradientUnits="userSpaceOnUse">
<stop stop-color="#04646C"/>
<stop offset="0.49" stop-color="#00EB75"/>
<stop offset="0.91" stop-color="#00EB75" stop-opacity="0"/>
</linearGradient>
<linearGradient id="paint17_linear_2451_2114" x1="407.515" y1="0" x2="407.515" y2="815.029" gradientUnits="userSpaceOnUse">
<stop offset="0.485" stop-color="#00182E"/>
<stop offset="1" stop-color="#063E56"/>
</linearGradient>
<linearGradient id="paint18_linear_2451_2114" x1="407.515" y1="0" x2="407.515" y2="815.029" gradientUnits="userSpaceOnUse">
<stop stop-color="#04646C"/>
<stop offset="0.49" stop-color="#00EB75"/>
<stop offset="0.91" stop-color="#00EB75" stop-opacity="0"/>
</linearGradient>
<linearGradient id="paint19_linear_2451_2114" x1="965.465" y1="632.619" x2="1123.7" y2="906.722" gradientUnits="userSpaceOnUse">
<stop stop-color="#063E56"/>
<stop offset="0.515" stop-color="#008F7C"/>
</linearGradient>
<linearGradient id="paint20_linear_2451_2114" x1="965.465" y1="632.619" x2="1123.7" y2="906.722" gradientUnits="userSpaceOnUse">
<stop offset="0.09" stop-color="#00EB75" stop-opacity="0"/>
<stop offset="0.51" stop-color="#00EB75"/>
<stop offset="1" stop-color="#04646C"/>
</linearGradient>
<linearGradient id="paint21_linear_2451_2114" x1="965.465" y1="620.62" x2="1123.7" y2="894.722" gradientUnits="userSpaceOnUse">
<stop stop-color="#063E56"/>
<stop offset="0.515" stop-color="#008F7C"/>
</linearGradient>
<linearGradient id="paint22_linear_2451_2114" x1="965.465" y1="620.62" x2="1123.7" y2="894.722" gradientUnits="userSpaceOnUse">
<stop stop-color="#00EB75" stop-opacity="0"/>
<stop offset="0.49" stop-color="#F1FFE0"/>
<stop offset="0.91" stop-color="#FACC15" stop-opacity="0"/>
</linearGradient>
</defs>
</svg>
