<svg viewBox="0 0 164 38" fill="none" xmlns="http://www.w3.org/2000/svg">
<g clip-path="url(#clip0_135_820)">
<path d="M80.9451 14.478V17.1844C80.9451 20.7711 78.2308 23.2278 73.0869 23.2278H69.9932V30.4983C68.2883 30.656 66.5859 30.656 64.9126 30.4983V8.46875H73.0869C78.2308 8.46875 80.9451 10.9229 80.9451 14.4806V14.478ZM75.8644 15.2663C75.8644 13.4086 74.8551 12.5284 72.834 12.4968H69.9932V17.6259C69.9932 18.0988 69.9616 18.5692 69.8351 19.0421L69.9932 19.1998H72.834C74.8551 19.1682 75.8644 18.288 75.8644 16.3988V15.2663Z" fill="#FCFDFC"/>
<path d="M87.4461 16.6827C88.3921 14.8565 90.192 13.8502 92.9695 14.197C92.9695 15.9286 92.6849 17.2502 92.0867 18.635C90.1604 18.3827 88.8032 18.8242 87.5726 20.0197V30.4985C86.2787 30.6561 84.0704 30.6561 82.7739 30.4985V15.0772C84.0362 14.3862 85.9941 14.0078 87.5726 14.0078C87.5726 14.7646 87.4777 15.8024 87.288 16.525L87.4461 16.6827Z" fill="#FCFDFC"/>
<path d="M94.5767 9.72718C94.5767 8.0902 95.3646 7.20996 97.1012 7.20996C98.8378 7.20996 99.5941 8.0902 99.5941 9.72718C99.5941 11.3642 98.7745 12.2129 97.1012 12.2129C95.4278 12.2129 94.5767 11.3957 94.5767 9.72718ZM94.5767 15.0769C95.8389 14.3859 97.7969 14.0075 99.3753 14.0075V30.4982C98.0815 30.6558 95.8732 30.6558 94.5767 30.4982V15.0769Z" fill="#FCFDFC"/>
<path d="M112.884 14.2569C114.557 14.0993 116.135 14.0993 117.774 14.2569L112.314 30.4953C110.641 30.653 108.654 30.653 106.981 30.4953L101.015 14.2569C102.751 14.0993 104.485 14.0993 106.222 14.2569L109.221 23.0987C109.379 23.6032 109.568 24.3888 109.632 25.3952H109.79C109.853 24.3888 110.043 23.6006 110.201 23.0987L112.884 14.2569Z" fill="#FCFDFC"/>
<path d="M137.027 8.46883C138.289 8.31117 140.497 8.31117 141.791 8.46883V30.4984C140.466 30.6561 138.005 30.6561 136.711 30.4984V19.5152C136.711 19.0422 136.742 18.5403 136.869 18.0674L136.711 17.9412L132.07 25.2748C131.817 25.3379 131.029 25.3694 130.776 25.3694C130.523 25.3694 129.735 25.3379 129.482 25.2748L124.842 17.9412L124.684 18.0674C124.81 18.5403 124.842 19.0422 124.842 19.5152V30.4984C123.548 30.6561 121.055 30.6561 119.761 30.4984V8.46883C121.055 8.31117 123.232 8.31117 124.526 8.46883L129.764 16.9979C130.081 17.5655 130.616 18.4142 130.679 19.1368H130.869C130.932 18.4142 131.438 17.5629 131.783 16.9979L137.022 8.46883H137.027Z" fill="#FCFDFC"/>
<path d="M158.517 20.7422L163.692 30.4984C161.829 30.6561 159.81 30.6561 157.947 30.4984L153.844 22.2531L149.552 30.4984C147.689 30.6561 145.891 30.6561 144.028 30.4984L149.204 20.7422C149.647 19.9251 149.928 19.4521 150.561 19.2629V19.0737C149.865 18.853 149.362 18.2565 149.014 17.5944L144.028 8.46883C145.828 8.31117 147.973 8.31117 149.773 8.46883L153.908 16.4934L158.295 8.46883C160.095 8.31117 161.892 8.31117 163.692 8.46883L158.738 17.5944C158.358 18.2565 157.887 18.853 157.191 19.0737V19.2629C157.792 19.4521 158.105 19.9251 158.517 20.7422Z" fill="#FCFDFC"/>
<path d="M13.8664 3.15309L10.5171 0H36.9084L33.6118 3.1347C32.534 4.15945 31.1005 4.73226 29.6116 4.73226H17.8482C16.3672 4.73226 14.9442 4.16734 13.869 3.15572L13.8664 3.15309Z" fill="#FCFDFC"/>
<path d="M45.4279 0.328815L23.7167 20.9579L2.00537 0.328815C1.24908 -0.388514 0 0.144884 0 1.1854V38.0004L3.04627 34.9629C4.1346 33.8777 4.74333 32.4089 4.74333 30.8744V9.46752L19.6295 23.6118C19.8719 23.8456 20.1512 24.0295 20.4727 24.132V24.3212C20.1512 24.4237 19.8719 24.6076 19.6295 24.8415L7.92663 35.9614C7.15189 36.6971 7.67365 38.0004 8.74617 38.0004H38.6871C39.757 38.0004 40.2814 36.6971 39.5067 35.9614L27.8091 24.8467C27.564 24.6129 27.2821 24.4263 26.9579 24.3238V24.1346C27.2821 24.0322 27.564 23.8456 27.8091 23.6091L42.69 9.47015V30.877C42.69 32.4089 43.3013 33.8803 44.387 34.9655L47.4333 38.003V1.1854C47.4333 0.144884 46.1842 -0.388514 45.4279 0.328815ZM29.7934 33.2681H17.6373L23.714 27.4927L29.7907 33.2681H29.7934Z" fill="#FCFDFC"/>
</g>
<defs>
<clipPath id="clip0_135_820">
<rect width="163.692" height="38" fill="white"/>
</clipPath>
</defs>
</svg>
